<?xml version="1.0" standalone="no"?>
<!DOCTYPE svg PUBLIC "-//W3C//DTD SVG 20010904//EN"
 "http://www.w3.org/TR/2001/REC-SVG-20010904/DTD/svg10.dtd">
<svg version="1.0" xmlns="http://www.w3.org/2000/svg"
 width="400.000000pt" height="400.000000pt" viewBox="0 0 400.000000 400.000000"
 preserveAspectRatio="xMidYMid meet">
<metadata>
Created by potrace 1.11, written by Peter Selinger 2001-2013
</metadata>
<g transform="translate(0.000000,400.000000) scale(0.100000,-0.100000)"
fill="#000000" stroke="none">
<path d="M600 3900 l0 -100 -100 0 -100 0 0 -200 0 -200 100 0 100 0 0 -100 0
-100 300 0 300 0 0 -1500 0 -1500 100 0 100 0 0 -100 0 -100 900 0 900 0 0
100 0 100 100 0 100 0 0 100 0 100 100 0 100 0 0 600 0 600 -100 0 -100 0 0
100 0 100 -100 0 -100 0 0 200 0 200 100 0 100 0 0 100 0 100 100 0 100 0 0
600 0 600 -100 0 -100 0 0 100 0 100 -100 0 -100 0 0 100 0 100 -1300 0 -1300
0 0 -100z m2200 -1100 l0 -400 -400 0 -400 0 0 400 0 400 400 0 400 0 0 -400z
m0 -1600 l0 -400 -400 0 -400 0 0 400 0 400 400 0 400 0 0 -400z"/>
</g>
</svg>
