<?xml version="1.0" standalone="no"?>
<!DOCTYPE svg PUBLIC "-//W3C//DTD SVG 20010904//EN"
 "http://www.w3.org/TR/2001/REC-SVG-20010904/DTD/svg10.dtd">
<svg version="1.0" xmlns="http://www.w3.org/2000/svg"
 width="512.000000pt" height="512.000000pt" viewBox="0 0 512.000000 512.000000"
 preserveAspectRatio="xMidYMid meet">
<metadata>
Created by potrace 1.11, written by Peter Selinger 2001-2013
</metadata>
<g transform="translate(0.000000,512.000000) scale(0.100000,-0.100000)"
fill="#000000" stroke="none">
<path d="M1440 4080 l0 -80 -80 0 -80 0 0 -160 0 -160 80 0 80 0 0 -80 0 -80
240 0 240 0 0 -1200 0 -1200 80 0 80 0 0 -80 0 -80 720 0 720 0 0 80 0 80 80
0 80 0 0 80 0 80 80 0 80 0 0 480 0 480 -80 0 -80 0 0 80 0 80 -80 0 -80 0 0
160 0 160 80 0 80 0 0 80 0 80 80 0 80 0 0 480 0 480 -80 0 -80 0 0 80 0 80
-80 0 -80 0 0 80 0 80 -1040 0 -1040 0 0 -80z m1760 -880 l0 -320 -320 0 -320
0 0 320 0 320 320 0 320 0 0 -320z m0 -1280 l0 -320 -320 0 -320 0 0 320 0
320 320 0 320 0 0 -320z"/>
</g>
</svg>
